<svg viewBox="0 0 350 144.36723144171827" preserveAspectRatio="xMidYMid meet" class="css-8aabad" id="fhgdghee"><defs id="SvgjsDefs1208"></defs><g id="SvgjsG1209" featurekey="symbolFeature-0" transform="matrix(1.75,0,0,1.75,87.5,-44.84549903869629)" fill="#fff"><path xmlns="http://www.w3.org/2000/svg" fill="none" stroke="#fff" stroke-width="2" stroke-linecap="round" stroke-linejoin="round" stroke-miterlimit="10" d="  M55,34.373c0,2.764-2.239,5.003-5,5.003c-2.763,0-5.001-2.239-5.001-5.003c0-2.759,2.238-4.998,5.001-4.998  C52.761,29.375,55,31.614,55,34.373z"></path><circle xmlns="http://www.w3.org/2000/svg" fill="none" stroke="#fff" stroke-width="2" stroke-linecap="round" stroke-linejoin="round" stroke-miterlimit="10" cx="50" cy="56.875" r="5"></circle><circle xmlns="http://www.w3.org/2000/svg" fill="none" stroke="#fff" stroke-width="2" stroke-linecap="round" stroke-linejoin="round" stroke-miterlimit="10" cx="30" cy="65.623" r="5"></circle><circle xmlns="http://www.w3.org/2000/svg" fill="none" stroke="#fff" stroke-width="2" stroke-linecap="round" stroke-linejoin="round" stroke-miterlimit="10" cx="69.999" cy="65.623" r="5.001"></circle><path xmlns="http://www.w3.org/2000/svg" fill="none" stroke="#fff" stroke-width="2" stroke-linecap="round" stroke-linejoin="round" stroke-miterlimit="10" d="  M54.576,36.376c-0.771,1.762-2.528,2.999-4.576,2.999c-2.049,0-3.804-1.235-4.577-2.997L30,43.124v17.501c2.761,0,5,2.236,5,4.998  c0,0.713-0.154,1.389-0.424,2.004l15.425,6.746l15.42-6.746c-0.269-0.613-0.423-1.291-0.423-2.004c0-2.762,2.237-4.998,5-4.998H70  V43.124L54.576,36.376z"></path><path xmlns="http://www.w3.org/2000/svg" fill="none" stroke="#fff" stroke-width="2" stroke-linecap="round" stroke-linejoin="round" stroke-miterlimit="10" d="  M70.002,25.626l-15.426,6.745C54.845,32.987,55,33.66,55,34.373c0,2.764-2.239,5.003-5,5.003v12.5c2.761,0,5,2.238,5,5  c0,0.713-0.153,1.387-0.424,2l10.845,4.746c0.772-1.764,2.527-2.996,4.577-2.996c2.048,0,3.807,1.234,4.578,2.998l15.422-6.748  L90,56.877V34.375L70.002,25.626z"></path><path xmlns="http://www.w3.org/2000/svg" fill="none" stroke="#fff" stroke-width="2" stroke-linecap="round" stroke-linejoin="round" stroke-miterlimit="10" d="  M44.999,56.875c0-2.762,2.238-5,5.001-5l0,0v-12.5l0,0c-2.763,0-5.001-2.239-5.001-5.003c0-0.713,0.154-1.388,0.423-2.001  l-15.42-6.745L10,34.375v22.502l0.002-0.002l15.421,6.746c0.771-1.764,2.526-2.996,4.576-2.996s3.806,1.234,4.578,2.998  l10.845-4.746C45.153,58.262,44.999,57.588,44.999,56.875z"></path></g><g id="SvgjsG1210" featurekey="nameFeature-0" transform="matrix(1.4059725514899382,0,0,1.4059725514899382,-0.3374337609759623,87.79089897324457)" fill="#fff"><path d="M12.52 17.28 l0 20.12 c0 1.52 -0.8 2.72 -2.52 2.72 s-2.52 -1.2 -2.52 -2.72 l0 -20.12 l-4.64 0 c-1.44 0 -2.6 -0.76 -2.6 -2.4 s1.16 -2.4 2.6 -2.4 l14.32 0 c1.44 0 2.6 0.76 2.6 2.4 s-1.16 2.4 -2.6 2.4 l-4.64 0 z M48.162000000000006 26.240000000000002 c0 8.96 -6.16 14 -13 14 s-13 -5.04 -13 -14 s6.16 -14 13 -14 s13 5.04 13 14 z M42.482 26.240000000000002 c0 -5.28 -2.96 -9.44 -7.32 -9.44 s-7.32 4.16 -7.32 9.44 s2.96 9.44 7.32 9.44 s7.32 -4.16 7.32 -9.44 z M53.083999999999996 37.36 l0 -22.24 c0 -1.56 0.8 -2.76 2.52 -2.76 s2.52 1.2 2.52 2.76 l0 5.52 c1.16 0.16 2.32 0.28 3.48 0.44 c2.32 -0.92 5 -3.04 5.72 -6.28 c0.36 -1.64 1.16 -2.44 2.64 -2.44 c1.4 0 2.4 1.04 2.4 2.6 c0 2.72 -3.28 7.04 -6.16 8.08 c4.96 2.6 7.84 8.76 7.84 13.92 c0 1.84 -0.72 3.16 -2.52 3.16 c-1.76 0 -2.4 -1.24 -2.52 -3.08 c-0.48 -7.24 -4.32 -11.72 -10.88 -12.08 l0 12.4 c0 1.56 -0.8 2.76 -2.52 2.76 s-2.52 -1.2 -2.52 -2.76 z M83.52600000000001 17.04 l0 3.44 l9.6 0 c1.36 0 2.44 0.72 2.44 2.28 s-1.08 2.28 -2.44 2.28 l-9.6 0 l0 10.4 l10 0 c1.36 0 2.44 0.72 2.44 2.28 s-1.08 2.28 -2.44 2.28 l-11.8 0 c-2.64 0 -3.48 -1.36 -3.48 -3.44 l0 -21.36 c0 -1.52 0.84 -2.72 2.2 -2.72 l13.08 0 c1.36 0 2.44 0.72 2.44 2.28 s-1.08 2.28 -2.44 2.28 l-10 0 z M120.328 15.120000000000001 l0 22.24 c0 1.56 -0.8 2.76 -2.52 2.76 s-2.52 -1.2 -2.52 -2.76 l0 -12.68 c-3.28 -0.36 -6.64 -2.64 -9.28 -5.72 l0 18.4 c0 1.56 -0.8 2.76 -2.52 2.76 s-2.52 -1.2 -2.52 -2.76 l0 -22.24 c0.08 -1.56 1.04 -2.76 3.24 -2.76 c3.92 0 4.36 5.88 11.08 7.76 l0 -5 c0 -1.56 0.8 -2.76 2.52 -2.76 s2.52 1.2 2.52 2.76 z M131.65 25.04 l0 11.96 c0 1.92 -0.68 3.12 -2.64 3.12 s-2.64 -1.2 -2.64 -3.12 l0 -21.8 c0 -1.52 0.84 -2.72 2.2 -2.72 l12.2 0 c1.36 0 2.44 0.72 2.44 2.28 s-1.08 2.28 -2.44 2.28 l-9.12 0 l0 3.44 l8.72 0 c1.36 0 2.44 0.72 2.44 2.28 s-1.08 2.28 -2.44 2.28 l-8.72 0 z M171.77200000000002 26.240000000000002 c0 8.96 -6.16 14 -13 14 s-13 -5.04 -13 -14 s6.16 -14 13 -14 s13 5.04 13 14 z M166.092 26.240000000000002 c0 -5.28 -2.96 -9.44 -7.32 -9.44 s-7.32 4.16 -7.32 9.44 s2.96 9.44 7.32 9.44 s7.32 -4.16 7.32 -9.44 z M181.49400000000003 25.16 l0 12.28 c0 1.48 -0.8 2.68 -2.52 2.68 s-2.52 -1.2 -2.52 -2.68 l0 -22.28 c0 -1.48 0.8 -2.68 2.52 -2.68 l8.56 0 c6.08 0 8.4 1.76 8.4 5.68 c0 2.72 -1.52 4.88 -3.64 6.28 c3.44 3.12 5.28 8.24 5.28 12.08 c0 1.84 -0.36 3.6 -2.36 3.6 c-2.2 0 -2.64 -1.48 -2.68 -3.36 c-0.12 -6.04 -3.4 -11.6 -11.04 -11.6 z M181.49400000000003 17.04 l0 3.8 c2.2 0 3.24 0.24 4.24 0.44 l2.44 0.64 c1.08 0 2.72 -1.8 2.72 -3 c0 -1.28 -1 -1.88 -2.72 -1.88 l-6.68 0 z M225.89600000000004 23.84 l0 13.28 c0 2 -1.12 3.12 -4.8 3.12 c-16.08 0 -20.32 -9.92 -20.56 -15.56 c-0.24 -7.04 4.04 -12.2 11.24 -12.2 l10.16 0 c1.44 0 2.6 0.76 2.6 2.4 s-1.16 2.4 -2.6 2.4 l-8.76 0 c-4.8 0 -6.96 2.56 -6.96 6.52 c0 7.64 6.56 11.64 14.64 11.64 l0 -10 l-6.08 0 c-1.36 0 -2.48 -0.72 -2.48 -2.28 s1.12 -2.28 2.48 -2.28 l7.68 0 c2.8 0 3.44 1.36 3.44 2.96 z M236.73800000000003 17.04 l0 3.44 l9.6 0 c1.36 0 2.44 0.72 2.44 2.28 s-1.08 2.28 -2.44 2.28 l-9.6 0 l0 10.4 l10 0 c1.36 0 2.44 0.72 2.44 2.28 s-1.08 2.28 -2.44 2.28 l-11.8 0 c-2.64 0 -3.48 -1.36 -3.48 -3.44 l0 -21.36 c0 -1.52 0.84 -2.72 2.2 -2.72 l13.08 0 c1.36 0 2.44 0.72 2.44 2.28 s-1.08 2.28 -2.44 2.28 l-10 0 z"></path></g></svg>